# xmcd
#
# Track frame offsets: 
#        150
#        23309
#        41146
#        59561
#        87562
#        100822
#        121759
#        137674
#        149270
#        175271
#        199169
#
# Disc length: 2862 seconds
#
# Revision: 0
# Processed by: cddbd v1.5.2PL0 Copyright (c) Steve Scherf et al.
# Submitted via: ExactAudioCopy v1.3
#
DISCID=960b2c0b
DTITLE=Little Boys Blue - Bad Love
DYEAR=2014
DGENRE=Electric Blues
TTITLE0=Bad Love
TTITLE1=She Put Me Down
TTITLE2=Treat Me Like You Used To
TTITLE3=Death Letter Blues
TTITLE4=Forget These Blues
TTITLE5=Howling For You
TTITLE6=Cajun Girl
TTITLE7=You And I
TTITLE8=Go Back Home
TTITLE9=Ain't No Use In Cryin
TTITLE10=Cant Be Satisfied
EXTD=
EXTT0=
EXTT1=
EXTT2=
EXTT3=
EXTT4=
EXTT5=
EXTT6=
EXTT7=
EXTT8=
EXTT9=
EXTT10=
PLAYORDER=
